<svg width="50" height="57" viewBox="0 0 50 57" fill="none" xmlns="http://www.w3.org/2000/svg">
<path d="M21.3487 34.267C21.3487 25.572 8.50971 27.607 8.50971 23.093C8.50971 21.465 9.65671 20.688 11.1737 20.725C12.8757 20.762 14.0597 21.761 14.1707 23.426H21.0157C20.7567 18.468 16.9457 15.656 11.2847 15.656C5.84571 15.656 1.81271 18.394 1.81271 23.315C1.73871 32.528 14.7257 29.938 14.7257 34.748C14.7257 36.265 13.5417 37.19 11.6917 37.19C9.91571 37.19 8.65771 36.228 8.47271 34.23H1.73871C1.92371 39.484 6.28971 42.259 11.8767 42.259C17.9447 42.259 21.3487 38.633 21.3487 34.267Z" fill="#0075FF"/>
<path d="M48.5894 28.939C48.5894 21.132 42.7064 15.656 35.3064 15.656C27.9434 15.656 21.9494 21.132 21.9494 28.939C21.9494 36.746 27.9434 42.259 35.3064 42.259C42.6694 42.259 48.5894 36.746 48.5894 28.939ZM28.4244 28.939C28.4244 24.314 31.0884 21.391 35.3064 21.391C39.4504 21.391 42.1514 24.314 42.1514 28.939C42.1514 33.49 39.4504 36.487 35.3064 36.487C31.0884 36.487 28.4244 33.49 28.4244 28.939Z" fill="black"/>
<path d="M25.995 21.7026C26.1583 20.8655 26.8888 20.4071 27.4861 19.8695C27.9372 19.4635 28.6297 18.8708 29.2577 18.8708" stroke="white" stroke-linecap="round"/>
<path d="M32.4114 8.68536C26.5208 3.56154 18.6666 3.56154 12.776 8.68536" stroke="black" stroke-width="2" stroke-linecap="round" stroke-linejoin="round"/>
<path d="M36 6.08825C28.2 -0.696059 17.8 -0.696059 10 6.08825" stroke="black" stroke-width="2" stroke-linecap="round" stroke-linejoin="round"/>
<path d="M28.4844 11.7595C26.743 10.2449 24.7157 9.47654 22.6842 9.45439C20.5924 9.43158 18.4962 10.2 16.7031 11.7595" stroke="black" stroke-width="2" stroke-linecap="round" stroke-linejoin="round"/>
<path d="M22.5938 9.58641C24.2188 9.58641 26.25 9.90443 28.2812 11.8125" stroke="#0075FF" stroke-width="2" stroke-linecap="round"/>
<path d="M23 4.8162C25.0312 4.8162 29.9062 6.08825 32.3438 8.63237" stroke="#0075FF" stroke-width="2" stroke-linecap="round"/>
<path d="M22.5938 1C27.875 1.00001 33.1562 3.22611 36 6.08824" stroke="#0075FF" stroke-width="2" stroke-linecap="round"/>
<path d="M32.4114 48.1271C26.5208 53.251 18.6666 53.251 12.776 48.1271" stroke="black" stroke-width="2" stroke-linecap="round" stroke-linejoin="round"/>
<path d="M36 50.7243C28.2 57.5086 17.8 57.5086 10 50.7242" stroke="black" stroke-width="2" stroke-linecap="round" stroke-linejoin="round"/>
<path d="M28.4844 45.053C26.743 46.5676 24.7157 47.336 22.6842 47.3581C20.5924 47.3809 18.4962 46.6125 16.7031 45.053" stroke="black" stroke-width="2" stroke-linecap="round" stroke-linejoin="round"/>
<path d="M22.5938 47.2261C24.2188 47.2261 26.25 46.9081 28.2813 45" stroke="#0075FF" stroke-width="2" stroke-linecap="round"/>
<path d="M23 51.9963C25.0312 51.9963 29.9063 50.7242 32.3438 48.1801" stroke="#0075FF" stroke-width="2" stroke-linecap="round"/>
<path d="M22.5938 55.8125C27.875 55.8125 33.1563 53.5864 36 50.7243" stroke="#0075FF" stroke-width="2" stroke-linecap="round"/>
<path d="M24.7637 23.2417C24.7723 23.5877 24.9278 23.6109 24.8252 23.3032" stroke="white" stroke-linecap="round"/>
<path d="M4.10107 20.0895C4.10107 19.2016 4.79273 18.659 5.52624 18.2464C5.64469 18.1797 6.06796 18.0258 6.13225 17.9455C6.21614 17.8406 6.52669 17.9207 6.65885 17.8326" stroke="white" stroke-linecap="round"/>
<path d="M3.87537 21.7445C3.92011 21.9434 3.95691 22.457 4.10105 22.3129C4.14362 22.2703 4.10105 21.9617 4.10105 21.895" stroke="white" stroke-linecap="round"/>
</svg>
