<svg width="475" height="92" viewBox="0 0 475 92" fill="none" xmlns="http://www.w3.org/2000/svg">
<path d="M119.038 67.58C115.906 67.58 112.871 67.1353 109.932 66.246C107.032 65.3567 104.731 64.1773 103.03 62.708L105.64 56.85C107.303 58.1647 109.333 59.2473 111.73 60.098C114.166 60.91 116.602 61.316 119.038 61.316C122.054 61.316 124.297 60.8327 125.766 59.866C127.274 58.8993 128.028 57.6233 128.028 56.038C128.028 54.878 127.603 53.9307 126.752 53.196C125.94 52.4227 124.896 51.8233 123.62 51.398C122.344 50.9727 120.604 50.4893 118.4 49.948C115.307 49.2133 112.793 48.4787 110.86 47.744C108.965 47.0093 107.322 45.8687 105.93 44.322C104.577 42.7367 103.9 40.61 103.9 37.942C103.9 35.6993 104.499 33.6693 105.698 31.852C106.935 29.996 108.772 28.5267 111.208 27.444C113.683 26.3613 116.699 25.82 120.256 25.82C122.731 25.82 125.167 26.1293 127.564 26.748C129.961 27.3667 132.03 28.256 133.77 29.416L131.392 35.274C129.613 34.23 127.757 33.4373 125.824 32.896C123.891 32.3547 122.015 32.084 120.198 32.084C117.221 32.084 114.997 32.5867 113.528 33.592C112.097 34.5973 111.382 35.9313 111.382 37.594C111.382 38.754 111.788 39.7013 112.6 40.436C113.451 41.1707 114.514 41.7507 115.79 42.176C117.066 42.6013 118.806 43.0847 121.01 43.626C124.026 44.322 126.501 45.0567 128.434 45.83C130.367 46.5647 132.011 47.7053 133.364 49.252C134.756 50.7987 135.452 52.8867 135.452 55.516C135.452 57.7587 134.833 59.7887 133.596 61.606C132.397 63.4233 130.561 64.8733 128.086 65.956C125.611 67.0387 122.595 67.58 119.038 67.58ZM159.401 35.68C162.417 35.68 165.104 36.3373 167.463 37.652C169.86 38.9667 171.735 40.8227 173.089 43.22C174.442 45.6173 175.119 48.382 175.119 51.514C175.119 54.646 174.442 57.43 173.089 59.866C171.735 62.2633 169.86 64.1193 167.463 65.434C165.104 66.7487 162.417 67.406 159.401 67.406C155.225 67.406 151.919 66.014 149.483 63.23V78.252H142.233V36.028H149.135V40.088C150.333 38.6187 151.803 37.5167 153.543 36.782C155.321 36.0473 157.274 35.68 159.401 35.68ZM158.589 61.2C161.257 61.2 163.441 60.3107 165.143 58.532C166.883 56.7533 167.753 54.414 167.753 51.514C167.753 48.614 166.883 46.2747 165.143 44.496C163.441 42.7173 161.257 41.828 158.589 41.828C156.849 41.828 155.283 42.234 153.891 43.046C152.499 43.8193 151.397 44.9407 150.585 46.41C149.773 47.8793 149.367 49.5807 149.367 51.514C149.367 53.4473 149.773 55.1487 150.585 56.618C151.397 58.0873 152.499 59.228 153.891 60.04C155.283 60.8133 156.849 61.2 158.589 61.2ZM211.11 51.688C211.11 52.1907 211.072 52.906 210.994 53.834H186.692C187.118 56.1153 188.22 57.9327 189.998 59.286C191.816 60.6007 194.058 61.258 196.726 61.258C200.129 61.258 202.932 60.1367 205.136 57.894L209.022 62.36C207.63 64.0227 205.871 65.2793 203.744 66.13C201.618 66.9807 199.22 67.406 196.552 67.406C193.15 67.406 190.153 66.7293 187.562 65.376C184.972 64.0227 182.961 62.1473 181.53 59.75C180.138 57.314 179.442 54.5687 179.442 51.514C179.442 48.498 180.119 45.7913 181.472 43.394C182.864 40.958 184.778 39.0633 187.214 37.71C189.65 36.3567 192.396 35.68 195.45 35.68C198.466 35.68 201.154 36.3567 203.512 37.71C205.91 39.0247 207.766 40.9 209.08 43.336C210.434 45.7333 211.11 48.5173 211.11 51.688ZM195.45 41.48C193.13 41.48 191.158 42.176 189.534 43.568C187.949 44.9213 186.982 46.7387 186.634 49.02H204.208C203.899 46.7773 202.952 44.96 201.366 43.568C199.781 42.176 197.809 41.48 195.45 41.48ZM229.057 35.68C233.619 35.68 237.099 36.782 239.497 38.986C241.933 41.1513 243.151 44.438 243.151 48.846V67H236.307V63.23C235.417 64.5833 234.141 65.6273 232.479 66.362C230.855 67.058 228.883 67.406 226.563 67.406C224.243 67.406 222.213 67.0193 220.473 66.246C218.733 65.434 217.379 64.332 216.413 62.94C215.485 61.5093 215.021 59.9047 215.021 58.126C215.021 55.342 216.045 53.1187 218.095 51.456C220.183 49.7547 223.45 48.904 227.897 48.904H235.901V48.44C235.901 46.2747 235.243 44.612 233.929 43.452C232.653 42.292 230.739 41.712 228.187 41.712C226.447 41.712 224.726 41.9827 223.025 42.524C221.362 43.0653 219.951 43.8193 218.791 44.786L215.949 39.508C217.573 38.2707 219.525 37.3233 221.807 36.666C224.088 36.0087 226.505 35.68 229.057 35.68ZM228.071 62.128C229.888 62.128 231.493 61.722 232.885 60.91C234.315 60.0593 235.321 58.8607 235.901 57.314V53.718H228.419C224.243 53.718 222.155 55.0907 222.155 57.836C222.155 59.1507 222.677 60.1947 223.721 60.968C224.765 61.7413 226.215 62.128 228.071 62.128ZM265.099 53.718L259.705 58.822V67H252.455V23.964H259.705V49.948L274.727 36.028H283.427L270.493 49.02L284.645 67H275.829L265.099 53.718ZM289.045 36.028H296.295V67H289.045V36.028ZM292.699 30.924C291.384 30.924 290.282 30.518 289.393 29.706C288.504 28.8553 288.059 27.8113 288.059 26.574C288.059 25.3367 288.504 24.312 289.393 23.5C290.282 22.6493 291.384 22.224 292.699 22.224C294.014 22.224 295.116 22.63 296.005 23.442C296.894 24.2153 297.339 25.2013 297.339 26.4C297.339 27.676 296.894 28.7587 296.005 29.648C295.154 30.4987 294.052 30.924 292.699 30.924ZM323.385 35.68C327.29 35.68 330.422 36.8207 332.781 39.102C335.139 41.3833 336.319 44.7667 336.319 49.252V67H329.069V50.18C329.069 47.4733 328.431 45.4433 327.155 44.09C325.879 42.698 324.061 42.002 321.703 42.002C319.035 42.002 316.927 42.814 315.381 44.438C313.834 46.0233 313.061 48.324 313.061 51.34V67H305.811V36.028H312.713V40.03C313.911 38.5993 315.419 37.5167 317.237 36.782C319.054 36.0473 321.103 35.68 323.385 35.68ZM376.539 36.028V62.302C376.539 73.206 370.971 78.658 359.835 78.658C356.858 78.658 354.035 78.2713 351.367 77.498C348.699 76.7633 346.495 75.6807 344.755 74.25L348.003 68.798C349.356 69.9193 351.058 70.8087 353.107 71.466C355.195 72.162 357.302 72.51 359.429 72.51C362.832 72.51 365.326 71.7367 366.911 70.19C368.496 68.6433 369.289 66.2847 369.289 63.114V61.49C368.052 62.8433 366.544 63.868 364.765 64.564C362.986 65.26 361.034 65.608 358.907 65.608C355.968 65.608 353.3 64.9893 350.903 63.752C348.544 62.476 346.669 60.6973 345.277 58.416C343.924 56.1347 343.247 53.5247 343.247 50.586C343.247 47.6473 343.924 45.0567 345.277 42.814C346.669 40.5327 348.544 38.7733 350.903 37.536C353.3 36.2987 355.968 35.68 358.907 35.68C361.15 35.68 363.18 36.0473 364.997 36.782C366.853 37.5167 368.4 38.638 369.637 40.146V36.028H376.539ZM360.009 59.46C362.754 59.46 364.997 58.648 366.737 57.024C368.516 55.3613 369.405 53.2153 369.405 50.586C369.405 47.9953 368.516 45.888 366.737 44.264C364.997 42.64 362.754 41.828 360.009 41.828C357.225 41.828 354.944 42.64 353.165 44.264C351.425 45.888 350.555 47.9953 350.555 50.586C350.555 53.2153 351.425 55.3613 353.165 57.024C354.944 58.648 357.225 59.46 360.009 59.46Z" fill="black"/>
<path d="M405.732 67.58C401.595 67.58 397.864 66.6907 394.538 64.912C391.213 63.0947 388.603 60.6007 386.708 57.43C384.814 54.2207 383.866 50.644 383.866 46.7C383.866 42.756 384.814 39.1987 386.708 36.028C388.603 32.8187 391.213 30.3247 394.538 28.546C397.864 26.7287 401.595 25.82 405.732 25.82C409.87 25.82 413.601 26.7287 416.926 28.546C420.252 30.3247 422.862 32.7993 424.756 35.97C426.651 39.1407 427.598 42.7173 427.598 46.7C427.598 50.6827 426.651 54.2593 424.756 57.43C422.862 60.6007 420.252 63.0947 416.926 64.912C413.601 66.6907 409.87 67.58 405.732 67.58ZM405.732 60.968C408.439 60.968 410.875 60.3687 413.04 59.17C415.206 57.9327 416.907 56.2313 418.144 54.066C419.382 51.862 420 49.4067 420 46.7C420 43.9933 419.382 41.5573 418.144 39.392C416.907 37.188 415.206 35.4867 413.04 34.288C410.875 33.0507 408.439 32.432 405.732 32.432C403.026 32.432 400.59 33.0507 398.424 34.288C396.259 35.4867 394.558 37.188 393.32 39.392C392.083 41.5573 391.464 43.9933 391.464 46.7C391.464 49.4067 392.083 51.862 393.32 54.066C394.558 56.2313 396.259 57.9327 398.424 59.17C400.59 60.3687 403.026 60.968 405.732 60.968ZM447.481 29.416C444.426 29.416 442.899 31.0787 442.899 34.404V36.26H451.425V42.06H443.131V67H435.881V42.06H430.777V36.26H435.881V34.288C435.881 30.9627 436.847 28.3527 438.781 26.458C440.714 24.5247 443.44 23.558 446.959 23.558C449.743 23.558 451.927 24.1187 453.513 25.24L451.483 30.692C450.245 29.8413 448.911 29.416 447.481 29.416ZM468.891 29.416C465.836 29.416 464.309 31.0787 464.309 34.404V36.26H472.835V42.06H464.541V67H457.291V42.06H452.187V36.26H457.291V34.288C457.291 30.9627 458.257 28.3527 460.191 26.458C462.124 24.5247 464.85 23.558 468.369 23.558C471.153 23.558 473.337 24.1187 474.923 25.24L472.893 30.692C471.655 29.8413 470.321 29.416 468.891 29.416Z" fill="#058F13"/>
<path d="M40 32.64C40 30.232 38.048 28.28 35.64 28.28C33.232 28.28 31.28 30.232 31.28 32.64C31.28 35.048 33.232 37 35.64 37C38.048 37 40 35.048 40 32.64Z" fill="#058F13"/>
<path d="M8.88 37H14.54C14.54 22.94 25.94 11.54 40 11.54V5.88C22.82 5.88 8.88 19.82 8.88 37V37ZM20.2 37H25.86C25.86 29.2 32.2 22.86 40 22.86V17.2C29.06 17.2 20.2 26.06 20.2 37V37Z" fill="#058F13"/>
<path d="M49 59.36C49 61.768 50.952 63.72 53.36 63.72C55.768 63.72 57.72 61.768 57.72 59.36C57.72 56.952 55.768 55 53.36 55C50.952 55 49 56.952 49 59.36Z" fill="#058F13"/>
<path d="M80.12 55H74.46C74.46 69.06 63.06 80.46 49 80.46L49 86.12C66.18 86.12 80.12 72.18 80.12 55V55ZM68.8 55H63.14C63.14 62.8 56.8 69.14 49 69.14V74.8C59.94 74.8 68.8 65.94 68.8 55V55Z" fill="#058F13"/>
<rect x="26" y="23" width="37" height="46" rx="14" fill="white"/>
<path d="M44.172 64.52C41.364 64.52 38.6427 64.1213 36.008 63.324C33.408 62.5267 31.3453 61.4693 29.82 60.152L32.16 54.9C33.6507 56.0787 35.4707 57.0493 37.62 57.812C39.804 58.54 41.988 58.904 44.172 58.904C46.876 58.904 48.8867 58.4707 50.204 57.604C51.556 56.7373 52.232 55.5933 52.232 54.172C52.232 53.132 51.8507 52.2827 51.088 51.624C50.36 50.9307 49.424 50.3933 48.28 50.012C47.136 49.6307 45.576 49.1973 43.6 48.712C40.8267 48.0533 38.5733 47.3947 36.84 46.736C35.1413 46.0773 33.668 45.0547 32.42 43.668C31.2067 42.2467 30.6 40.34 30.6 37.948C30.6 35.9373 31.1373 34.1173 32.212 32.488C33.3213 30.824 34.968 29.5067 37.152 28.536C39.3707 27.5653 42.0747 27.08 45.264 27.08C47.4827 27.08 49.6667 27.3573 51.816 27.912C53.9653 28.4667 55.82 29.264 57.38 30.304L55.248 35.556C53.6533 34.62 51.9893 33.9093 50.256 33.424C48.5227 32.9387 46.8413 32.696 45.212 32.696C42.5427 32.696 40.5493 33.1467 39.232 34.048C37.9493 34.9493 37.308 36.1453 37.308 37.636C37.308 38.676 37.672 39.5253 38.4 40.184C39.1627 40.8427 40.116 41.3627 41.26 41.744C42.404 42.1253 43.964 42.5587 45.94 43.044C48.644 43.668 50.8627 44.3267 52.596 45.02C54.3293 45.6787 55.8027 46.7013 57.016 48.088C58.264 49.4747 58.888 51.3467 58.888 53.704C58.888 55.7147 58.3333 57.5347 57.224 59.164C56.1493 60.7933 54.5027 62.0933 52.284 63.064C50.0653 64.0347 47.3613 64.52 44.172 64.52Z" fill="#C4C4C4"/>
<path d="M44.038 66.58C40.906 66.58 37.8707 66.1353 34.932 65.246C32.032 64.3567 29.7313 63.1773 28.03 61.708L30.64 55.85C32.3027 57.1647 34.3327 58.2473 36.73 59.098C39.166 59.91 41.602 60.316 44.038 60.316C47.054 60.316 49.2967 59.8327 50.766 58.866C52.274 57.8993 53.028 56.6233 53.028 55.038C53.028 53.878 52.6027 52.9307 51.752 52.196C50.94 51.4227 49.896 50.8233 48.62 50.398C47.344 49.9727 45.604 49.4893 43.4 48.948C40.3067 48.2133 37.7933 47.4787 35.86 46.744C33.9653 46.0093 32.322 44.8687 30.93 43.322C29.5767 41.7367 28.9 39.61 28.9 36.942C28.9 34.6993 29.4993 32.6693 30.698 30.852C31.9353 28.996 33.772 27.5267 36.208 26.444C38.6827 25.3613 41.6987 24.82 45.256 24.82C47.7307 24.82 50.1667 25.1293 52.564 25.748C54.9613 26.3667 57.03 27.256 58.77 28.416L56.392 34.274C54.6133 33.23 52.7573 32.4373 50.824 31.896C48.8907 31.3547 47.0153 31.084 45.198 31.084C42.2207 31.084 39.9973 31.5867 38.528 32.592C37.0973 33.5973 36.382 34.9313 36.382 36.594C36.382 37.754 36.788 38.7013 37.6 39.436C38.4507 40.1707 39.514 40.7507 40.79 41.176C42.066 41.6013 43.806 42.0847 46.01 42.626C49.026 43.322 51.5007 44.0567 53.434 44.83C55.3673 45.5647 57.0107 46.7053 58.364 48.252C59.756 49.7987 60.452 51.8867 60.452 54.516C60.452 56.7587 59.8333 58.7887 58.596 60.606C57.3973 62.4233 55.5607 63.8733 53.086 64.956C50.6113 66.0387 47.5953 66.58 44.038 66.58Z" fill="black"/>
</svg>
