<svg width="125" height="125" viewBox="0 0 125 125" fill="none" xmlns="http://www.w3.org/2000/svg">
<circle cx="62.5" cy="62.5" r="62.5" fill="#17A2B8"/>
<rect x="38" y="57" width="50" height="10" fill="white"/>
<rect x="59" y="87" width="50" height="10" transform="rotate(-90 59 87)" fill="white"/>
<path d="M93 62C93 64.7614 90.7614 67 88 67C85.2386 67 83 64.7614 83 62C83 59.2386 85.2386 57 88 57C90.7614 57 93 59.2386 93 62Z" fill="white"/>
<path d="M69 37C69 39.7614 66.7614 42 64 42C61.2386 42 59 39.7614 59 37C59 34.2386 61.2386 32 64 32C66.7614 32 69 34.2386 69 37Z" fill="white"/>
<path d="M43 62C43 64.7614 40.7614 67 38 67C35.2386 67 33 64.7614 33 62C33 59.2386 35.2386 57 38 57C40.7614 57 43 59.2386 43 62Z" fill="white"/>
<path d="M69 87C69 89.7614 66.7614 92 64 92C61.2386 92 59 89.7614 59 87C59 84.2386 61.2386 82 64 82C66.7614 82 69 84.2386 69 87Z" fill="white"/>
</svg>
