<svg width="177" height="177" viewBox="0 0 177 177" fill="none" xmlns="http://www.w3.org/2000/svg">
<g clip-path="url(#clip0)">
<circle cx="88.5" cy="88.5" r="62.5" transform="rotate(45 88.5 88.5)" fill="#FF3225"/>
<rect x="75.065" y="67.2868" width="50" height="10" transform="rotate(45 75.065 67.2868)" fill="white"/>
<rect x="67.9939" y="102.642" width="50" height="10" transform="rotate(-45 67.9939 102.642)" fill="white"/>
<path d="M110.42 109.713C108.468 111.666 105.302 111.666 103.349 109.713C101.397 107.761 101.397 104.595 103.349 102.642C105.302 100.689 108.468 100.689 110.42 102.642C112.373 104.595 112.373 107.761 110.42 109.713Z" fill="white"/>
<path d="M110.42 74.3579C108.468 76.3105 105.302 76.3105 103.349 74.3579C101.397 72.4052 101.397 69.2394 103.349 67.2868C105.302 65.3342 108.468 65.3342 110.42 67.2868C112.373 69.2394 112.373 72.4052 110.42 74.3579Z" fill="white"/>
<path d="M75.065 74.3579C73.1124 76.3105 69.9465 76.3105 67.9939 74.3579C66.0413 72.4052 66.0413 69.2394 67.9939 67.2868C69.9465 65.3342 73.1124 65.3342 75.065 67.2868C77.0176 69.2394 77.0176 72.4052 75.065 74.3579Z" fill="white"/>
<path d="M75.065 109.713C73.1124 111.666 69.9465 111.666 67.9939 109.713C66.0413 107.761 66.0413 104.595 67.9939 102.642C69.9465 100.689 73.1124 100.689 75.065 102.642C77.0176 104.595 77.0176 107.761 75.065 109.713Z" fill="white"/>
</g>
<defs>
<clipPath id="clip0">
<path d="M44.3058 44.3058C68.7136 19.898 108.286 19.898 132.694 44.3058V44.3058C157.102 68.7136 157.102 108.286 132.694 132.694V132.694C108.286 157.102 68.7136 157.102 44.3058 132.694V132.694C19.8981 108.286 19.8981 68.7136 44.3058 44.3058V44.3058Z" fill="white"/>
</clipPath>
</defs>
</svg>
