<svg width="251" height="63" viewBox="0 0 251 63" fill="none" xmlns="http://www.w3.org/2000/svg">
<path d="M21.4044 41.267C21.4044 32.572 8.56543 34.607 8.56543 30.093C8.56543 28.465 9.71243 27.688 11.2294 27.725C12.9314 27.762 14.1154 28.761 14.2264 30.426H21.0714C20.8124 25.468 17.0014 22.656 11.3404 22.656C5.90143 22.656 1.86843 25.394 1.86843 30.315C1.79443 39.528 14.7814 36.938 14.7814 41.748C14.7814 43.265 13.5974 44.19 11.7474 44.19C9.97143 44.19 8.71343 43.228 8.52843 41.23H1.79443C1.97943 46.484 6.34543 49.259 11.9324 49.259C18.0004 49.259 21.4044 45.633 21.4044 41.267ZM31.4401 31.277V28.354H25.1131V58.842H31.4401V46.114C32.5871 47.853 34.7701 49.296 37.8041 49.296C42.8731 49.296 46.9061 45.152 46.9061 38.64C46.9061 32.128 42.8731 28.058 37.8041 28.058C34.7701 28.058 32.5871 29.464 31.4401 31.277ZM40.4681 38.64C40.4681 41.933 38.3221 43.783 35.9171 43.783C33.5491 43.783 31.4031 41.97 31.4031 38.677C31.4031 35.384 33.5491 33.571 35.9171 33.571C38.3221 33.571 40.4681 35.347 40.4681 38.64ZM59.1424 33.127C61.2514 33.127 63.0274 34.422 63.0274 36.679H55.1094C55.4794 34.385 57.0704 33.127 59.1424 33.127ZM69.0214 42.155H62.2874C61.7694 43.265 60.7704 44.153 58.9944 44.153C56.9594 44.153 55.2944 42.895 55.0724 40.194H69.3914C69.4654 39.565 69.5024 38.936 69.5024 38.344C69.5024 32.054 65.2474 28.058 59.2164 28.058C53.0744 28.058 48.7824 32.128 48.7824 38.677C48.7824 45.226 53.1484 49.296 59.2164 49.296C64.3594 49.296 68.0224 46.188 69.0214 42.155ZM71.3972 38.64C71.3972 45.152 75.4302 49.296 80.4622 49.296C83.5332 49.296 85.7162 47.89 86.8632 46.077V49H93.1902V28.354H86.8632V31.277C85.7532 29.464 83.5702 28.058 80.4992 28.058C75.4302 28.058 71.3972 32.128 71.3972 38.64ZM86.8632 38.677C86.8632 41.97 84.7542 43.783 82.3492 43.783C79.9812 43.783 77.8352 41.933 77.8352 38.64C77.8352 35.347 79.9812 33.571 82.3492 33.571C84.7542 33.571 86.8632 35.384 86.8632 38.677ZM97.5825 49H103.91V40.342L110.2 49H118.044L109.386 38.714L117.97 28.354H110.163L103.91 36.753V21.62H97.5825V49ZM120.27 49H126.597V28.354H120.27V49ZM123.452 26.208C125.672 26.208 127.189 24.691 127.189 22.804C127.189 20.88 125.672 19.363 123.452 19.363C121.195 19.363 119.678 20.88 119.678 22.804C119.678 24.691 121.195 26.208 123.452 26.208ZM145.242 49H151.532V36.938C151.532 31.388 148.35 28.132 143.577 28.132C140.802 28.132 138.582 29.353 137.324 31.092V28.354H130.997V49H137.324V37.789C137.324 34.977 138.878 33.423 141.283 33.423C143.688 33.423 145.242 34.977 145.242 37.789V49ZM154.485 38.64C154.485 45.152 158.518 49.296 163.587 49.296C166.621 49.296 168.804 47.853 169.951 46.04V48.963C169.951 52.441 168.064 53.699 165.659 53.699C163.476 53.699 161.922 52.7 161.515 51.146H155.262C155.817 56.067 159.813 59.175 165.955 59.175C173.096 59.175 176.278 54.476 176.278 48.963V28.354H169.951V31.277C168.841 29.427 166.621 28.058 163.587 28.058C158.518 28.058 154.485 32.128 154.485 38.64ZM169.951 38.677C169.951 41.97 167.842 43.783 165.437 43.783C163.069 43.783 160.923 41.933 160.923 38.64C160.923 35.347 163.069 33.571 165.437 33.571C167.842 33.571 169.951 35.384 169.951 38.677Z" fill="#0075FF"/>
<path d="M206.238 35.939C206.238 28.132 200.355 22.656 192.955 22.656C185.592 22.656 179.598 28.132 179.598 35.939C179.598 43.746 185.592 49.259 192.955 49.259C200.318 49.259 206.238 43.746 206.238 35.939ZM186.073 35.939C186.073 31.314 188.737 28.391 192.955 28.391C197.099 28.391 199.8 31.314 199.8 35.939C199.8 40.49 197.099 43.487 192.955 43.487C188.737 43.487 186.073 40.49 186.073 35.939ZM210.202 49H216.529V33.608H219.933V28.354H216.529V28.169C216.529 25.986 217.38 25.246 219.822 25.394V20.029C213.532 19.696 210.202 22.36 210.202 27.762V28.354H207.908V33.608H210.202V49ZM223.35 49H229.677V33.608H233.081V28.354H229.677V28.169C229.677 25.986 230.528 25.246 232.97 25.394V20.029C226.68 19.696 223.35 22.36 223.35 27.762V28.354H221.056V33.608H223.35V49Z" fill="black"/>
<path d="M188.654 24.9884C187.8 25.0097 186.023 25.8655 185.74 26.7152" stroke="white" stroke-linecap="round"/>
<path d="M184.044 28.3027C184.081 28.2514 184.268 28.0686 184.189 27.9896C184.122 27.9228 184.007 27.9833 183.969 28.0504C183.897 28.1807 183.889 28.4997 184.086 28.3027" stroke="white" stroke-linecap="round"/>
<path d="M160.558 30.2627C159.901 30.5417 159.417 30.9522 159.079 31.56C158.954 31.786 158.799 32.1519 158.597 32.3142C158.429 32.4486 158.144 32.83 158.144 33.0383" stroke="white" stroke-linecap="round"/>
<path d="M157.058 34.4864C157.184 34.5756 157.375 34.7185 157.541 34.7278C157.565 34.7291 157.747 34.7278 157.661 34.7278" stroke="white" stroke-linecap="round"/>
<path d="M143.073 28.9752C142.473 28.861 141.558 29.2011 141.019 29.4711" stroke="white" stroke-linecap="round"/>
<path d="M139.531 30.1794L139.177 30.3919" stroke="white" stroke-linecap="round"/>
<path d="M121.399 29.9435C121.399 31.4749 121.504 33.0451 121.504 34.5979" stroke="white" stroke-linecap="round"/>
<path d="M121.61 36.3962V37.0309" stroke="white" stroke-linecap="round"/>
<path d="M121.716 20.7404C121.588 20.916 121.368 21.3906 121.187 21.4808" stroke="white" stroke-linecap="round"/>
<path d="M109.553 31.0696C109.704 30.8754 109.951 30.7256 109.951 30.472" stroke="white" stroke-linecap="round"/>
<path d="M106.764 34.8547C107.367 34.3975 107.921 33.7357 108.258 33.0618" stroke="white" stroke-linecap="round"/>
<path d="M98.587 23.0249V25.9292" stroke="white" stroke-linecap="round"/>
<path d="M75.1844 31.3176C75.5359 30.8537 76.0514 30.4901 76.5698 30.2597C76.8289 30.1446 77.0819 30.0283 77.3507 29.9323C77.595 29.845 77.8634 29.8873 78.1063 29.8063" stroke="white" stroke-linecap="round"/>
<path d="M79.5168 29.5544H79.9199" stroke="white" stroke-linecap="round"/>
<path d="M215.585 21.653C214.723 21.6741 213.888 22.1795 213.517 22.9204" stroke="white" stroke-linecap="round"/>
<path d="M212.25 24.4545L212.45 24.1877" stroke="white" stroke-linecap="round"/>
<path d="M226.252 22.8861C226.568 22.6568 226.901 22.3982 227.235 22.2311" stroke="white" stroke-linecap="round"/>
<path d="M225.215 24.2507C225.144 24.3441 225.072 24.4339 224.997 24.5236" stroke="white" stroke-linecap="round"/>
<path d="M53.9596 31.1003C54.4819 30.3821 55.2136 30.1086 56.0847 30.1086" stroke="white" stroke-linecap="round"/>
<path d="M52.6846 32.4462C52.6269 32.3659 52.4157 32.1628 52.6137 32.1628" stroke="white" stroke-linecap="round"/>
<path d="M34.8422 29.7683C35.3201 29.5818 35.9165 29.2466 36.4363 29.2466C36.6523 29.2466 36.8891 29.2193 37.1029 29.2498C37.2267 29.2675 37.7511 29.2677 37.7985 29.3625" stroke="white" stroke-linecap="round"/>
<path d="M33.219 30.4639C33.1533 30.5117 32.8772 30.6438 32.9292 30.6958" stroke="white" stroke-linecap="round"/>
<path d="M7.26819 24.5785C8.54011 23.9502 10.0527 23.5891 11.4731 23.5891" stroke="white" stroke-linecap="round"/>
<path d="M6.03149 25.4029C6.23684 25.5523 6.23762 25.5274 6.23762 25.3205" stroke="white" stroke-linecap="round"/>
<path d="M249.668 14.3256L239.081 13.1304C238.473 13.0618 237.947 13.5501 237.97 14.1615L238.896 38.9217C238.915 39.416 239.292 39.8225 239.783 39.878L242.561 40.1915C243.045 40.2463 243.499 39.9434 243.634 39.4748L250.516 15.5962C250.688 15.0012 250.283 14.395 249.668 14.3256Z" fill="#0094FF"/>
<path d="M241.901 44.6457L239.549 44.3801C238.951 44.3126 238.43 44.7843 238.437 45.3857L238.461 47.4012C238.467 47.9055 238.848 48.3263 239.349 48.3829L241.453 48.6204C242.001 48.6824 242.497 48.2877 242.558 47.7389L242.783 45.7516C242.845 45.2028 242.45 44.7077 241.901 44.6457Z" fill="#0094FF"/>
<path d="M240.5 14.6676C240.106 14.6676 239.903 14.7591 239.626 15.0356C239.535 15.1263 239.453 15.2149 239.363 15.305C239.282 15.3861 239.311 15.5666 239.258 15.673" stroke="white" stroke-linecap="round"/>
<path d="M241.801 14.6676C241.92 14.6907 242.037 14.7098 242.156 14.7268" stroke="white" stroke-linecap="round"/>
<path d="M240.266 46C240.178 46.0641 240 46.138 240 46.2663" stroke="white" stroke-linecap="round"/>
<path d="M111.417 13.0833C118.667 5.02739 128.333 5.02739 135.583 13.0833" stroke="black" stroke-width="2" stroke-linecap="round" stroke-linejoin="round"/>
<path d="M107 9.00002C116.6 -1.66665 129.4 -1.66665 139 9.00002" stroke="black" stroke-width="2" stroke-linecap="round" stroke-linejoin="round"/>
<path d="M116.25 17.9167C118.393 15.5354 120.888 14.3273 123.389 14.2925C125.963 14.2566 128.543 15.4647 130.75 17.9167" stroke="black" stroke-width="2" stroke-linecap="round" stroke-linejoin="round"/>
<path d="M123.5 14.5C121.5 14.5 119 15 116.5 18" stroke="#0075FF" stroke-width="2" stroke-linecap="round"/>
<path d="M123 7.00002C120.5 7.00002 114.5 9.00002 111.5 13" stroke="#0075FF" stroke-width="2" stroke-linecap="round"/>
<path d="M123.5 1C117 1.00001 110.5 4.50001 107 9.00002" stroke="#0075FF" stroke-width="2" stroke-linecap="round"/>
</svg>
